<?xml version="1.0" encoding="utf-8"?>
<!-- Generator: Adobe Illustrator 21.0.2, SVG Export Plug-In . SVG Version: 6.00 Build 0)  -->
<svg version="1.1" id="圖層_1" xmlns="http://www.w3.org/2000/svg" xmlns:xlink="http://www.w3.org/1999/xlink" x="0px" y="0px"
	 viewBox="0 0 79 80" style="enable-background:new 0 0 79 80;" xml:space="preserve">
<style type="text/css">
	.st0{enable-background:new    ;}
	.st1{fill:#7A0800;}
	.st2{fill:#AC0B00;}
	.st3{fill:#808080;}
	.st4{fill:#B4B4B4;}
	.st5{fill:#7B0800;}
	.st6{fill:#D40D00;}
	.st7{fill:#DFDFDF;}
	.st8{clip-path:url(#SVGID_2_);enable-background:new    ;}
	.st9{fill:#7E0800;}
	.st10{fill:#870800;}
	.st11{clip-path:url(#SVGID_4_);enable-background:new    ;}
	.st12{fill:#830800;}
	.st13{fill:#880800;}
	.st14{fill:#8D0900;}
	.st15{fill:#920900;}
	.st16{fill:#970900;}
	.st17{fill:#9C0A00;}
	.st18{fill:#A00A00;}
</style>
<g>
	<g>
		<g class="st0">
			<g>
				<polygon class="st1" points="45.5,58.5 36.4,53.6 35.3,46.9 44.4,51.8 				"/>
			</g>
			<g>
				<polygon class="st2" points="39.1,60.7 29.9,55.7 36.4,53.6 45.5,58.5 				"/>
			</g>
			<g>
				<polygon class="st3" points="39.1,60.7 29.9,55.7 28.8,49 37.9,54 				"/>
			</g>
			<g>
				<polygon class="st4" points="37.9,54 28.8,49 35.3,46.9 44.4,51.8 				"/>
			</g>
			<g>
				<polygon class="st2" points="38.9,50.2 29.8,45.2 33.2,44.1 42.3,49.1 				"/>
			</g>
			<g>
				<polygon class="st5" points="42.3,49.1 33.2,44.1 31.9,24.9 41,29.9 				"/>
			</g>
			<g>
				<polygon class="st1" points="41,29.9 31.9,24.9 31.8,24.1 40.9,29.1 				"/>
			</g>
			<g>
				<polygon class="st3" points="38.9,50.2 29.8,45.2 24.8,27.3 33.9,32.3 				"/>
			</g>
			<g>
				<polygon class="st4" points="33.8,31.4 24.7,26.5 31.8,24.1 40.9,29.1 				"/>
			</g>
			<g>
				<polygon class="st3" points="33.9,32.3 24.8,27.3 24.7,26.5 33.8,31.4 				"/>
			</g>
			<g>
				<path class="st6" d="M76.6,49.8c2.8,3.2,1,9-3.4,10.5L16.7,79.1c-0.3,0.1-0.7,0.2-1,0.2c-3.8,0.5-6.7-3.2-5.3-7.5l19.6-61
					c0.9-2.7,3.1-4.5,5.4-4.8c1.6-0.2,3.2,0.3,4.3,1.6L76.6,49.8z M33.8,31.4l0.1,0.8l5,17.9l3.3-1.1L41,29.9l-0.1-0.8L33.8,31.4
					 M39.1,60.7l6.5-2.2l-1.1-6.7L37.9,54L39.1,60.7"/>
			</g>
			<g>
				<polygon class="st7" points="44.4,51.8 45.5,58.5 39.1,60.7 37.9,54 				"/>
			</g>
			<g>
				<polygon class="st7" points="42.3,49.1 38.9,50.2 33.9,32.3 33.8,31.4 40.9,29.1 41,29.9 				"/>
			</g>
			<g class="st0">
				<defs>
					<path id="SVGID_1_" class="st0" d="M12.7,78.9l-9.1-5c-2.1-1.2-3.3-3.9-2.3-7l9.1,5C9.4,74.9,10.6,77.7,12.7,78.9z"/>
				</defs>
				<clipPath id="SVGID_2_">
					<use xlink:href="#SVGID_1_"  style="overflow:visible;"/>
				</clipPath>
				<g class="st8">
					<path class="st9" d="M12.7,78.9l-9.1-5c-2.1-1.2-3.3-3.9-2.3-7l9.1,5C9.4,74.9,10.6,77.7,12.7,78.9"/>
				</g>
			</g>
			<g>
				<polygon class="st10" points="10.4,71.9 1.3,66.9 20.8,5.9 30,10.9 				"/>
			</g>
			<g class="st0">
				<defs>
					<path id="SVGID_3_" class="st0" d="M29.2,1.6l9.1,5c-0.9-0.5-2-0.7-3-0.5c-2.3,0.3-4.5,2.1-5.4,4.8l-9.1-5
						c0.9-2.7,3.1-4.5,5.4-4.8C27.3,1,28.3,1.1,29.2,1.6z"/>
				</defs>
				<clipPath id="SVGID_4_">
					<use xlink:href="#SVGID_3_"  style="overflow:visible;"/>
				</clipPath>
				<g class="st11">
					<path class="st9" d="M30,10.9l-9.1-5c0-0.1,0.1-0.2,0.1-0.3l9.1,5C30,10.7,30,10.8,30,10.9"/>
					<path class="st12" d="M30.1,10.6l-9.1-5c0.1-0.3,0.3-0.7,0.4-1l9.1,5C30.3,9.9,30.2,10.2,30.1,10.6"/>
					<path class="st13" d="M30.5,9.6l-9.1-5c0.1-0.3,0.3-0.5,0.5-0.7l9.1,5C30.8,9.1,30.6,9.4,30.5,9.6"/>
					<path class="st14" d="M31,8.9l-9.1-5c0.2-0.2,0.3-0.4,0.5-0.6l9.1,5C31.3,8.4,31.1,8.6,31,8.9"/>
					<path class="st15" d="M31.5,8.2l-9.1-5c0.2-0.2,0.4-0.4,0.6-0.6l9.1,5C31.8,7.8,31.6,8,31.5,8.2"/>
					<path class="st16" d="M32,7.7l-9.1-5c0.2-0.2,0.4-0.4,0.7-0.5l9.1,5C32.5,7.3,32.2,7.5,32,7.7"/>
					<path class="st17" d="M32.7,7.1l-9.1-5c0.3-0.2,0.6-0.4,0.9-0.5l9.1,5C33.3,6.7,33,6.9,32.7,7.1"/>
					<path class="st18" d="M33.6,6.6l-9.1-5c0.5-0.3,1.1-0.4,1.7-0.5c0.7-0.1,1.3-0.1,2,0.1l9.1,5C36.7,6,36,6,35.3,6.1
						C34.8,6.2,34.2,6.3,33.6,6.6"/>
					<path class="st17" d="M37.3,6.2l-9.1-5c0.3,0.1,0.6,0.2,0.9,0.3l9.1,5C37.9,6.4,37.6,6.3,37.3,6.2"/>
					<path class="st16" d="M38.2,6.5l-9.1-5c0.1,0,0.1,0.1,0.2,0.1l9.1,5C38.3,6.6,38.2,6.5,38.2,6.5"/>
				</g>
			</g>
		</g>
	</g>
</g>
</svg>
