<?xml version="1.0" encoding="utf-8"?>
<!-- Generator: Adobe Illustrator 20.0.0, SVG Export Plug-In . SVG Version: 6.00 Build 0)  -->
<svg version="1.1" id="圖層_1" xmlns="http://www.w3.org/2000/svg" xmlns:xlink="http://www.w3.org/1999/xlink" x="0px" y="0px"
	 viewBox="0 0 352 352" style="enable-background:new 0 0 352 352;" xml:space="preserve">
<style type="text/css">
	.st0{clip-path:url(#SVGID_2_);}
	.st1{clip-path:url(#SVGID_4_);fill:#FFE9B7;}
	.st2{clip-path:url(#SVGID_4_);fill:#35D34F;}
	.st3{clip-path:url(#SVGID_4_);fill:#009E2F;}
	.st4{clip-path:url(#SVGID_6_);fill:none;stroke:#DDDDDD;stroke-width:2;stroke-miterlimit:10;stroke-dasharray:2,2.094;}
	.st5{clip-path:url(#SVGID_2_);fill:none;stroke:#DDDDDD;stroke-width:2;stroke-miterlimit:10;stroke-dasharray:2,2.094;}
	.st6{clip-path:url(#SVGID_8_);fill:#FFE9B7;}
	.st7{clip-path:url(#SVGID_8_);fill:#FFC86E;}
	.st8{clip-path:url(#SVGID_8_);fill:none;stroke:#DDDDDD;stroke-width:2;stroke-miterlimit:10;stroke-dasharray:2,2.094;}
	.st9{opacity:0.72;clip-path:url(#SVGID_8_);}
	.st10{opacity:0.43;clip-path:url(#SVGID_10_);}
	.st11{clip-path:url(#SVGID_12_);fill:#FF5816;}
	.st12{clip-path:url(#SVGID_8_);fill:#E6FFFF;}
	.st13{opacity:0.43;clip-path:url(#SVGID_14_);}
	.st14{clip-path:url(#SVGID_16_);fill:#2EF6FF;}
	.st15{opacity:0.43;clip-path:url(#SVGID_18_);}
	.st16{clip-path:url(#SVGID_20_);fill:#2EF6FF;}
	.st17{opacity:0.43;clip-path:url(#SVGID_22_);}
	.st18{clip-path:url(#SVGID_24_);fill:#2E9DFF;}
	.st19{opacity:0.43;clip-path:url(#SVGID_26_);}
	.st20{clip-path:url(#SVGID_28_);fill:#2E9DFF;}
	.st21{opacity:0.43;clip-path:url(#SVGID_8_);}
	.st22{clip-path:url(#SVGID_30_);fill:#2E9DFF;}
	.st23{opacity:0.43;clip-path:url(#SVGID_32_);}
	.st24{clip-path:url(#SVGID_34_);fill:#F58533;}
	.st25{opacity:0.43;clip-path:url(#SVGID_36_);}
	.st26{clip-path:url(#SVGID_38_);fill:#2E9DFF;}
	.st27{opacity:0.43;clip-path:url(#SVGID_40_);}
	.st28{clip-path:url(#SVGID_42_);fill:#C92D17;}
	.st29{clip-path:url(#SVGID_44_);fill:#2E9DFF;}
	.st30{opacity:0.43;clip-path:url(#SVGID_46_);}
	.st31{clip-path:url(#SVGID_48_);fill:#2EF6FF;}
	.st32{opacity:0.43;clip-path:url(#SVGID_50_);}
	.st33{clip-path:url(#SVGID_52_);fill:#2EF6FF;}
	.st34{clip-path:url(#SVGID_8_);fill:none;stroke:#000000;stroke-miterlimit:10;}
	.st35{opacity:0.43;clip-path:url(#SVGID_54_);}
	.st36{clip-path:url(#SVGID_56_);fill:#2EF6FF;}
</style>
<g>
	<g>
		<defs>
			<rect id="SVGID_1_" x="0.3" y="0.7" width="351.3" height="387.1"/>
		</defs>
		<clipPath id="SVGID_2_">
			<use xlink:href="#SVGID_1_"  style="overflow:visible;"/>
		</clipPath>
		<g class="st0">
			<defs>
				<path id="SVGID_3_" d="M0.9,176.9c0,96.7,78.5,175.2,175.4,175.2c96.9,0,175.4-78.4,175.4-175.2c0-96.7-78.5-175.2-175.4-175.2
					C79.4,1.7,0.9,80.1,0.9,176.9"/>
			</defs>
			<clipPath id="SVGID_4_">
				<use xlink:href="#SVGID_3_"  style="overflow:visible;"/>
			</clipPath>
			<path class="st1" d="M351.7,176.2c0,96.9-78.6,175.5-175.5,175.5c-96.9,0-175.5-78.6-175.5-175.5S79.2,0.7,176.2,0.7
				C273.1,0.7,351.7,79.3,351.7,176.2"/>
			<path class="st2" d="M295.5,358c-9.5,2.3-6.1,18.4,5.2,17.1c11.3-1.3,18.8-0.5,23.6,10.1c4.8,10.5,21.4-12.3,12.7-23.6
				c-8.7-11.4-7-12.3-11.3-19.7C321.2,334.3,304.7,355.8,295.5,358"/>
			<path class="st3" d="M315.8,317.3h-0.9c-3.7,0-6.6-3-6.6-6.6s3-6.6,6.6-6.6h0.9c3.7,0,6.6,3,6.6,6.6
				C322.4,314.4,319.5,317.3,315.8,317.3"/>
			<path class="st2" d="M279.9,346.4c-1.7,0-3.5-0.7-4.7-1.9c-1.2-1.2-1.9-2.9-1.9-4.7c0-1.7,0.7-3.4,1.9-4.7
				c1.2-1.2,2.9-1.9,4.7-1.9c1.7,0,3.4,0.7,4.7,1.9c1.2,1.2,1.9,2.9,1.9,4.7c0,1.7-0.7,3.4-1.9,4.7
				C283.3,345.7,281.6,346.4,279.9,346.4"/>
			<path class="st3" d="M301.3,338.2c-1.7,0-3.5-0.7-4.7-1.9c-1.2-1.2-1.9-2.9-1.9-4.7c0-1.7,0.7-3.5,1.9-4.7
				c1.2-1.2,2.9-1.9,4.7-1.9c1.7,0,3.4,0.7,4.7,1.9c1.2,1.2,1.9,2.9,1.9,4.7c0,1.7-0.7,3.4-1.9,4.7
				C304.7,337.5,303,338.2,301.3,338.2"/>
			<path class="st2" d="M320.4,300c-2.5,0-4.8-1.4-6-3.7c-1.6-3.3-0.2-7.2,3.1-8.8c5-2.4,8.1-7.4,8.1-12.9c0-3.7,3-6.6,6.6-6.6
				c3.7,0,6.6,3,6.6,6.6c0,10.5-6.1,20.3-15.6,24.8C322.3,299.8,321.3,300,320.4,300"/>
			<path class="st1" d="M316.3,123.9c-1.8-4.6-9.3-8-0.9-13.4c8.4-5.4,17.9-16.9,14.4-25.7c-3.5-8.8-14.9,9.4-26.8,1.3
				c-11.9-8.1-48.8,28.7-18.6,38.7C314.6,134.9,318,128.3,316.3,123.9"/>
		</g>
		<g class="st0">
			<defs>
				<rect id="SVGID_5_" x="0.3" y="0.7" width="351.3" height="387.1"/>
			</defs>
			<clipPath id="SVGID_6_">
				<use xlink:href="#SVGID_5_"  style="overflow:visible;"/>
			</clipPath>
			<line class="st4" x1="177.5" y1="1.8" x2="177.5" y2="352.2"/>
			<line class="st4" x1="350.7" y1="177" x2="0.3" y2="177"/>
		</g>
		<line class="st5" x1="298.4" y1="53.1" x2="50.7" y2="300.9"/>
		<line class="st5" x1="298.4" y1="300.9" x2="50.7" y2="53.1"/>
		<line class="st5" x1="241" y1="14.8" x2="110.2" y2="339.9"/>
		<line class="st5" x1="338.1" y1="242.8" x2="13.1" y2="112"/>
		<line class="st5" x1="336.8" y1="108.7" x2="14.4" y2="246"/>
		<line class="st5" x1="244.3" y1="338.5" x2="106.9" y2="16.2"/>
		<g class="st0">
			<defs>
				<rect id="SVGID_7_" x="0.3" y="0.7" width="351.3" height="387.1"/>
			</defs>
			<clipPath id="SVGID_8_">
				<use xlink:href="#SVGID_7_"  style="overflow:visible;"/>
			</clipPath>
			<path class="st6" d="M233.2,176.5c0,32.7-26.5,59.2-59.2,59.2c-32.7,0-59.2-26.5-59.2-59.2c0-32.7,26.5-59.2,59.2-59.2
				C206.7,117.3,233.2,143.8,233.2,176.5"/>
			<path class="st7" d="M148.8,13.1c0,0-47.3,7.3-56,32.7c-8.7,25.3-34,31.3-32.7,51.3c1.3,20,20.7,23.3,30.7,35.3
				c10,12,45.5,4.6,50.9,28.6c2.9,12.9-10,17.3-34.7,27.3c-24.7,10-51.5-10.6-64.2,10c-12.7,20.7,24.7,26.7,33.3,28
				c8.7,1.3,24-6.7,39.3,3.3c15.3,10-2,10,13.3,24.7c15.3,14.7,17.7,23,36,4.7c10-10,6.7-25.3,8-45.3c1.3-20,11.1-20.8,26-21.3
				c17.3-0.7,9.3-23.3-8.7-22c-19.9,1.5-35.4-4-38.4-15.7c-3-11.6-27-21.6-28.3-49.6c-1.3-28-14-50-0.7-56S166.2,23.1,148.8,13.1"/>
			<circle class="st8" cx="178" cy="177.5" r="147"/>
			<circle class="st8" cx="178.7" cy="178.5" r="105.1"/>
			<g class="st9">
				<g>
					<defs>
						<rect id="SVGID_9_" x="101.2" y="188.1" width="54.3" height="38.1"/>
					</defs>
					<clipPath id="SVGID_10_">
						<use xlink:href="#SVGID_9_"  style="overflow:visible;"/>
					</clipPath>
					<g class="st10">
						<g>
							<defs>
								<rect id="SVGID_11_" x="101.2" y="188.1" width="54.3" height="38.1"/>
							</defs>
							<clipPath id="SVGID_12_">
								<use xlink:href="#SVGID_11_"  style="overflow:visible;"/>
							</clipPath>
							<path class="st11" d="M109.5,225.8c0,0,44.6,4.6,45.9-18c1.6-28.7-15.9-15.5-29.7-19.4C111.9,184.6,88.7,212.2,109.5,225.8"
								/>
						</g>
					</g>
				</g>
			</g>
			<path class="st12" d="M174.4,123.8c0,0-54.9,8-59.5-22s15.3-60.7,34.7-67.3c19.3-6.7,38-9.3,62.7-3.3c24.7,6,29.3,9.3,46,12.7
				c16.7,3.3,28,12.7,30,19.3c2,6.7,6.7,11.3,5.3,21.3c-1.3,10,12,14.7-7.3,19.3c-19.3,4.7-21.3,13.3-33.3-2.7s5.3-27.3-29.3-30.7
				c-17.3-1.7-22.4,16.2-16.1,23.3c6.3,7.1,23.8,3.4,23.5,16c-0.7,25.3,4.7,66.6-27.6,61.3C171.1,165.8,175,135.8,174.4,123.8"/>
			<g class="st9">
				<g>
					<defs>
						<rect id="SVGID_13_" x="134.1" y="33.8" width="116.8" height="80.5"/>
					</defs>
					<clipPath id="SVGID_14_">
						<use xlink:href="#SVGID_13_"  style="overflow:visible;"/>
					</clipPath>
					<g class="st13">
						<g>
							<defs>
								<rect id="SVGID_15_" x="134.1" y="33.8" width="116.8" height="80.5"/>
							</defs>
							<clipPath id="SVGID_16_">
								<use xlink:href="#SVGID_15_"  style="overflow:visible;"/>
							</clipPath>
							<path class="st14" d="M146.6,108.2c15.5,14.9,56.2,2.3,51.9-33.6c-3.5-29.2,50.9-12.1,52.1-17c4.6-19-44.7-13.1-58.7-22.1
								C174.2,24.4,106.6,69.6,146.6,108.2"/>
						</g>
					</g>
				</g>
			</g>
			<path class="st12" d="M319.9,148.3c0,0-23,2-36-2s-45.9,22.6-50.6,30.2c-4.7,7.6-10.7,8.6-11.7,16.6s0.8,36.2-7.1,44.1
				c-8.6,8.6-11-29.5-18-36.5s-18-1.5-22,14.5c-2.8,11.4-1.5,20.5,1,33c2.2,10.8,12.1,24.9-9.9,28.9s-35-3-42-17s-6-23-28-12
				s-7,16-28,3s-31-15-34-2s10,37,34,49s97,60,183,20C316.5,264.1,342.9,186.3,319.9,148.3"/>
			<g class="st9">
				<g>
					<defs>
						<rect id="SVGID_17_" x="213.5" y="156.6" width="106.7" height="123.7"/>
					</defs>
					<clipPath id="SVGID_18_">
						<use xlink:href="#SVGID_17_"  style="overflow:visible;"/>
					</clipPath>
					<g class="st15">
						<g>
							<defs>
								<rect id="SVGID_19_" x="213.5" y="156.6" width="106.7" height="123.7"/>
							</defs>
							<clipPath id="SVGID_20_">
								<use xlink:href="#SVGID_19_"  style="overflow:visible;"/>
							</clipPath>
							<path class="st16" d="M219.4,280.3c0,0,77-12,97.3-77.5c15.4-49.9-22.2-31.3-40.8-43.6c-11.1-7.4-24.5-1.4-26.5,54.6
								C248.5,237.7,196.4,278.8,219.4,280.3"/>
						</g>
					</g>
				</g>
			</g>
			<g class="st9">
				<g>
					<defs>
						<rect id="SVGID_21_" x="144.1" y="45" width="54" height="51.4"/>
					</defs>
					<clipPath id="SVGID_22_">
						<use xlink:href="#SVGID_21_"  style="overflow:visible;"/>
					</clipPath>
					<g class="st17">
						<g>
							<defs>
								<rect id="SVGID_23_" x="144.1" y="45" width="54" height="51.4"/>
							</defs>
							<clipPath id="SVGID_24_">
								<use xlink:href="#SVGID_23_"  style="overflow:visible;"/>
							</clipPath>
							<path class="st18" d="M149.2,93.3c0,0,40.9,14.2,47.5-18.9c6.6-33.1-14.4-20.2-26.4-28.2C158.4,38.3,133.2,69.8,149.2,93.3"
								/>
						</g>
					</g>
				</g>
			</g>
			<g class="st9">
				<g>
					<defs>
						<rect id="SVGID_25_" x="258.3" y="172.5" width="33.1" height="31.5"/>
					</defs>
					<clipPath id="SVGID_26_">
						<use xlink:href="#SVGID_25_"  style="overflow:visible;"/>
					</clipPath>
					<g class="st19">
						<g>
							<defs>
								<rect id="SVGID_27_" x="258.3" y="172.5" width="33.1" height="31.5"/>
							</defs>
							<clipPath id="SVGID_28_">
								<use xlink:href="#SVGID_27_"  style="overflow:visible;"/>
							</clipPath>
							<path class="st20" d="M261.4,202.2c0,0,25.1,8.7,29.2-11.6c4.1-20.3-8.8-12.4-16.2-17.3C267.1,168.4,251.6,187.7,261.4,202.2
								"/>
						</g>
					</g>
				</g>
			</g>
			<g class="st21">
				<g>
					<defs>
						<rect id="SVGID_29_" x="156.9" y="57.3" width="28.8" height="27.4"/>
					</defs>
					<clipPath id="SVGID_30_">
						<use xlink:href="#SVGID_29_"  style="overflow:visible;"/>
					</clipPath>
					<path class="st22" d="M159.7,83.1c0,0,21.8,7.6,25.3-10.1c3.5-17.7-7.7-10.8-14.1-15C164.6,53.8,151.1,70.6,159.7,83.1"/>
				</g>
			</g>
			<g class="st9">
				<g>
					<defs>
						<rect id="SVGID_31_" x="123.9" y="71.1" width="23.8" height="17.4"/>
					</defs>
					<clipPath id="SVGID_32_">
						<use xlink:href="#SVGID_31_"  style="overflow:visible;"/>
					</clipPath>
					<g class="st23">
						<g>
							<defs>
								<rect id="SVGID_33_" x="123.9" y="71.1" width="23.8" height="17.4"/>
							</defs>
							<clipPath id="SVGID_34_">
								<use xlink:href="#SVGID_33_"  style="overflow:visible;"/>
							</clipPath>
							<path class="st24" d="M126.5,87c0,0,18.4,5.6,20.8-5.5c2.3-11-6.8-7.1-12.2-10C129.6,68.7,118.9,78.8,126.5,87"/>
						</g>
					</g>
				</g>
			</g>
			<g class="st9">
				<g>
					<defs>
						<rect id="SVGID_35_" x="178.7" y="216" width="17.1" height="23.3"/>
					</defs>
					<clipPath id="SVGID_36_">
						<use xlink:href="#SVGID_35_"  style="overflow:visible;"/>
					</clipPath>
					<g class="st25">
						<g>
							<defs>
								<rect id="SVGID_37_" x="178.7" y="216" width="17.1" height="23.3"/>
							</defs>
							<clipPath id="SVGID_38_">
								<use xlink:href="#SVGID_37_"  style="overflow:visible;"/>
							</clipPath>
							<path class="st26" d="M178.9,219.7c0,0-2.4,19.1,8.8,19.6c11.3,0.5,5.9-7.8,7.8-13.7C197.5,219.7,185.7,210.9,178.9,219.7"/>
						</g>
					</g>
				</g>
			</g>
			<g class="st9">
				<g>
					<defs>
						<rect id="SVGID_39_" x="112.4" y="202.1" width="30.1" height="18.2"/>
					</defs>
					<clipPath id="SVGID_40_">
						<use xlink:href="#SVGID_39_"  style="overflow:visible;"/>
					</clipPath>
					<g class="st27">
						<g>
							<defs>
								<rect id="SVGID_41_" x="112.4" y="202.1" width="30.1" height="18.2"/>
							</defs>
							<clipPath id="SVGID_42_">
								<use xlink:href="#SVGID_41_"  style="overflow:visible;"/>
							</clipPath>
							<path class="st28" d="M117.6,220.2c0,0,24.9,1.2,24.9-10.6c0-11.9-10.5-5.6-18.2-7.3S105.8,213.6,117.6,220.2"/>
						</g>
					</g>
				</g>
			</g>
			<g class="st21">
				<g>
					<defs>
						<rect id="SVGID_43_" x="188.9" y="119.7" width="28.8" height="27.4"/>
					</defs>
					<clipPath id="SVGID_44_">
						<use xlink:href="#SVGID_43_"  style="overflow:visible;"/>
					</clipPath>
					<path class="st29" d="M191.7,145.4c0,0,21.8,7.6,25.3-10.1c3.5-17.7-7.7-10.8-14.1-15C196.6,116.1,183.1,132.9,191.7,145.4"/>
				</g>
			</g>
			<path class="st12" d="M113.4,148.8c0,0-28.6-7.8-36.5-13c-13-8.5-12.6-26.2-28.5-25.5c-15.9,0.7-30.1,20.2-25.9,32.8
				c4.2,12.7,10.8,32.7,38.4,39.3c27.5,6.7,45.8-2.8,62.5-9.7C132,169.2,136.7,155.5,113.4,148.8"/>
			<g class="st9">
				<g>
					<defs>
						<rect id="SVGID_45_" x="38.9" y="141.2" width="78.9" height="36.8"/>
					</defs>
					<clipPath id="SVGID_46_">
						<use xlink:href="#SVGID_45_"  style="overflow:visible;"/>
					</clipPath>
					<g class="st30">
						<g>
							<defs>
								<rect id="SVGID_47_" x="38.9" y="141.2" width="78.9" height="36.8"/>
							</defs>
							<clipPath id="SVGID_48_">
								<use xlink:href="#SVGID_47_"  style="overflow:visible;"/>
							</clipPath>
							<path class="st31" d="M113.4,156.3c0,0-45.1-18.5-51.5-14.5s-27.6,1.3-22,10.7c5.6,9.3,17.6,18,25.6,22
								c8,4,32.1,4.3,36.9,2.3C107.2,174.8,126.4,163.8,113.4,156.3"/>
						</g>
					</g>
				</g>
			</g>
			<g class="st9">
				<g>
					<defs>
						<rect id="SVGID_49_" x="184.9" y="98.5" width="38.6" height="71"/>
					</defs>
					<clipPath id="SVGID_50_">
						<use xlink:href="#SVGID_49_"  style="overflow:visible;"/>
					</clipPath>
					<g class="st32">
						<g>
							<defs>
								<rect id="SVGID_51_" x="184.9" y="98.5" width="38.6" height="71"/>
							</defs>
							<clipPath id="SVGID_52_">
								<use xlink:href="#SVGID_51_"  style="overflow:visible;"/>
							</clipPath>
							<path class="st33" d="M216.4,102.2c0,0-17.5-12.8-27,9.1c-3.1,7.2-4.4,25.1-4.5,31.7c-0.5,28.7,22,29.3,26.5,23.8
								C215.9,161.3,232.9,118.6,216.4,102.2"/>
						</g>
					</g>
				</g>
			</g>
			<path class="st34" d="M41.1,197.4c0,0,21.9,19.8,22.3,26c1.8,11-6.6,13.2-12,28.6c-1.7,8.7-5.8,31.4,16.1,42.6
				c21.9,11.2,40.1,24.8,58.3,29.4c18.2,6.6,45.9,9.1,79.8,1.2c18.6-6.6,48.4-18.6,57.5-29c10.8-9.1,38.1-38.3,49.2-61.6
				c12.3-25.8,23.6-56.8-0.4-98.4c-4.3-7.5-6.9-14.2-7.9-21.5c-5.8-44-17.4-64.7-34.7-70.3c-20.3-8.3-70.3-27.3-113.7-12.8
				c-29.4,12.8-30.9,23.7-33.8,31.2c-2.9,7.4-0.7,20.2-8.7,28.7c-11.9,12.6-61-14.4-79.2,5.4C15.8,116.7,12.1,154,41.1,197.4z"/>
			<path class="st34" d="M110.2,104.8c-14.9-0.2-45.4-14-61.1,1.8c-4.1,4.1-7.5,9.1-9.7,14.8c-6.6,16.8-5.6,41.2,13,69.4
				c1.4,2.1,9.5,12.9,16.4,18.3c3.2,3,9.9,5.4,10.7,13.9c0.8,5.1-4.9,14.2-6.6,20c-0.3,2-0.7,4.1-1,6.1c-1,7.1-1.4,14.4-0.5,22.4
				c0.8,7.1,4.6,14.4,12.6,19.6c18.3,9.8,34,21.4,50.1,25.4c15.9,5.6,39.7,7.7,68.8,1.4c18.9-5.4,47.5-16.5,55.9-25.6
				c10.2-8.2,36-32.9,46-57.1c2.1-4.9,4-9.7,5.6-14.7c6.2-19,9.7-35.1-6.3-72.5c-0.5-1.1-3-6.7-3.5-7.8c-3.3-7.7-5.1-9.7-7.5-15.4
				c-2.5-6.1-1.9-15.6-3.3-21.6C283,79,275.4,61.5,262.2,54.7c-18.2-9.8-60.3-30.8-101.1-18.4c-9.3,3.1-13.9,6.5-18.2,10.2
				c-6.2,5.3-9.5,11.2-11,15.9c-1.3,4.1-2.2,8-3,11.3c-0.4,1.5-0.8,3.2-1.1,4.8c-0.8,4.6-0.9,10.3-2.4,16.3c-0.6,2.2-2,7-3.7,8.7
				C120.1,105.1,113.2,104.8,110.2,104.8z"/>
			<path class="st34" d="M116.7,114.7c-12.7,0.3-39.4-10.2-52.5,1.5c-3.6,3.3-6.7,7-8.7,11.4c-5.9,12.9-7.5,32.6,8.1,56.5
				c5.6,8.2,19.6,10.5,27.2,12.5c12.3,3,32.8,3.9,35,12.7c2.1,5.5-3.7,19.3-13.7,30.6c-5.6,6.4-21.1,16-21.9,24.7
				c-0.7,8,2.3,16.6,10,22.7c14.7,8.5,27.9,18,41.9,21.4c13.6,4.6,33.5,6.4,57.7,1.6c19.3-4.1,46.6-14.5,54.3-22.3
				c9.7-7.2,32.3-28.3,42.9-52.6c1.9-4.5,3.8-8.9,5.4-13.6c6.6-19.7,12.5-32.3-5.1-61.7c-0.6-1-1-2.1-1.7-3.1
				c-5.3-7.5-12-13.3-15.3-17.9c-3.4-5.2-2.2-12-3.3-23.8c-2.7-22.5-9.6-41.2-22.1-50.2c-16.1-11.3-50.3-34.2-88.4-23.9
				c-11.6,3.2-15.5,7-19.8,11.5c-5.6,5.9-8.5,13.4-9.1,19.2c-0.5,4.5-1.3,9-1.9,12.8c-0.3,1.8-0.5,3.7-0.7,5.4
				c-0.3,5.1,0.1,10.8-2.7,16.4c-1,2-3.3,5.4-5.5,6.7C125,114.2,119.9,114.6,116.7,114.7z"/>
			<path class="st34" d="M121,125.3c-10.5,3-31.3-7.1-41.8,0.6c-3.2,2.4-5.8,4.9-7.6,7.9c-5.3,8.9-9.3,24.1,3.3,43.7
				c4.2,6.2,17.3,9.5,24.6,11.5c7.6,1.1,32.2,2.7,35.8,11.9c3.4,5.9-0.3,13.6-3,19.3c-2.3,6.8-4.8,11.6-9.7,18.3
				c-5.8,8.1-9.2,12.8-11.7,22.2c-2.4,8.9-1.7,16.1,5.6,23.1c11.1,7.2,21.9,14.5,33.7,17.4c11.3,3.6,27.3,5,46.7,1.7
				c19.6-2.9,45.7-12.4,52.8-19c9.1-6.3,28.5-23.6,39.7-48.1c1.8-4,3.6-8.1,5.2-12.4c7.1-20.3,13.2-33.8-4.2-56.6
				c-0.7-0.9-1.5-3.6-16.5-12.3c-5.1-3-6.6-6.7-6.9-7.6c-2.8-8.8-1.9-13.3-2.8-19c-3.6-16.4-5-41.1-16.6-52.4
				c-14.1-12.7-40.3-37.7-75.8-29.4c-14,3.2-17.1,7.4-21.4,12.9c-5.1,6.4-7.5,15.7-7.2,22.5c0.3,4.9-0.3,10-0.7,14.3
				c-0.2,2.1-0.3,4.2-0.3,6.1c0.2,5.7-0.8,15.9-4,19.3c-1.5,1.6-5.4,2.3-8.3,3.1C128.1,124.6,123.1,124.7,121,125.3z"/>
			<path class="st34" d="M125.3,135.9c-9.7,0.4-23.4-4.3-31-0.4c-2.8,1.4-5,2.8-6.6,4.4c-4.7,4.9-11.2,15.5-1.6,30.9
				c5.6,8.3,18.5,10.6,28.2,11.2c9.8,0.1,20.5,1.3,28.8,9.3c4.6,6.2,4.6,9.7,3.7,16c-0.4,3.5-7.5,14.4-8,15.6
				c-5,12.3-6.3,18.1-10.5,28.1c-4,9.7-2.3,21,4.7,29c7.5,5.9,15.8,11.1,25.4,13.5c9.1,2.6,21.2,3.6,35.6,1.9
				c19.9-1.7,44.8-10.3,51.2-15.7c8.6-5.3,24.6-19,36.5-43.6c1.7-3.6,3.4-7.3,5-11.2c7.5-20.9,10.5-35.4-1.3-50.4
				c-3.2-4.1-5.7-7.6-21.3-8.8c-4.1-0.3-7.7-3-9-6.9c-1.9-6.1,0-14.1-1.3-20.8c-2-12.6-2.5-38.7-13.3-52.2
				c-12-14.2-30.3-41.2-63.1-35c-16.3,3.3-18.8,7.8-23,14.2c-4.6,6.9-6.6,18-5.3,25.7c1,5.3,0.6,11,0.5,15.8
				c-0.1,2.4-0.1,4.7,0.1,6.7c0.7,6.2-0.2,18.3-3.7,21.1c-1.7,1.4-6.5,1.7-10,2C133.8,136.4,127.6,135.8,125.3,135.9z"/>
			<path class="st34" d="M153.6,147.6c-1.9,1.2-7.7,1.2-11.7,0.8c-2.5-0.2-9.9-1.5-12.3-2c-13.9-3-22-1.1-25.7-0.4
				c-4.1,0.8-13,6.9-6.4,18.1c7,10.3,20.1,9.7,32.1,8.8c12-0.8,16.2,1.7,22.9,11.6c9.5,10.8,4.9,27.5,4.3,30.3
				c-2.3,12.5-3.5,18.6-9.3,29.3c-5.7,10.6-4.6,23.3,2,32.1c7.4,8.7,21.5,12,41.8,11.6c20.3-0.4,43.8-8.3,49.6-12.4
				c9.1-5,18.5-16,32.5-48.3c8-21.6,12.8-32,2-43.4c-0.8-0.9-2-1.4-3.1-2c-12.3-5.8-14.6,2.5-25.4-2.8c-6.2-2.5-0.6-18.1-1-24.8
				c-0.4-8.7-2.5-42.7-12.5-58.4c-9.9-15.7-20.3-44.7-50.5-40.5c-18.6,3.3-20.5,8.2-24.7,15.6c-4.1,7.4-5.8,20.3-3.3,29
				c2.5,8.7,1,18.4,2.2,24.6C158.4,131.5,157.5,145.3,153.6,147.6z"/>
			<path class="st34" d="M122.3,151.7c-8.8,0-16.3,3.2-16.3,6.9c0,3.8,7.5,6.9,16.3,6.9s16.3-3.2,16.3-6.9
				C138.6,154.9,131.1,151.7,122.3,151.7z"/>
			<path class="st34" d="M199.6,165.7c-0.5,0-1,0-1.5-0.1c-10-1.4-16.1-16.8-13.6-34.2c2.6-17.9,5.4-28.8,22.6-29
				c2.9,0,5.5,1.3,7.8,3.8c5.3,6,7.6,18.2,5.9,30.4C218.4,153.1,209.1,165.7,199.6,165.7z"/>
			<path class="st34" d="M200.8,150.6c-0.3,0-0.5,0-0.8-0.1c-2.5-0.4-4.7-2.4-6-5.8c-1.3-3.3-1.7-7.5-1-11.9
				c1.3-9.2,2.8-14.9,11.7-15c1.5,0,2.9,0.7,4,2c2.7,3.1,3.9,9.4,3,15.7c-0.6,4.3-2.2,8.3-4.3,11.1
				C205.4,149.2,203.1,150.6,200.8,150.6z"/>
			<path class="st34" d="M189.9,250.1c-2.6,0-5.2-1-7.4-2.9c-2.4-2.1-6.3-7.3-5.3-17.7c1-9.6,4.2-21.1,7.3-22.5
				c2.7-1.2,5.2-1.3,7.2-0.2c4.3,2.1,6.3,8.8,7.7,15.1c2.3,10,0.6,26.2-7.2,28C191.5,250,190.7,250.1,189.9,250.1z"/>
			<path class="st34" d="M191.2,279.8c-3.8,0-6.4-1.3-8.2-2.6c-3.8-2.9-5.9-8.4-5.4-13.9c-1.4-7.8-2-10.5-6.8-14.4
				c-11.5-5.3-6.6-21.6-2.6-35.6c1.2-4.2,8.3-21,8.7-23.7c2.8-18.2-4.8-20.8-6.4-31.1c-0.3-2.1-0.6-4.1-0.9-6
				c-1.3-10.1,0.5-22.5,2.2-33.5c1.5-9.9,2.7-18.5,0.9-21.3c-2.5-3.8-5-5-7.2-6c-3-1.4-5.3-2.5-5.3-9.3c0.8-7.8,11-16.5,11.5-16.9
				l0,0c3.8-2.8,7.2-3.9,10.4-3.2c5.4,1.2,8.7,7.3,11.3,12.2c1.6,3,3,5.5,4.4,6.3c3.6,2,6.7,3.3,9.7,4.5c8,3.3,14.3,5.9,22.5,19.6
				c10.6,17.9,6.9,44-2.3,60.7c-3.7,6.7-8,8.9-9.7,11.6c-2.5,4-10.3,8.9-13.3,16.3c-3.9,9.4,6.3,24.5,7.2,33.4
				c0.2,2.2,0.4,3.9,0.4,5c0.3,8.7-2.6,13.9-5,18.1c-2,3.5-3.4,6.1-2.1,9.3c1.9,4.5,2,9.3,0.4,13c-1.3,2.9-3.7,5.1-6.8,6.2
				C195.7,279.4,193.3,279.8,191.2,279.8z"/>
			<g class="st9">
				<g>
					<defs>
						<rect id="SVGID_53_" x="82.4" y="273.6" width="103.9" height="48.3"/>
					</defs>
					<clipPath id="SVGID_54_">
						<use xlink:href="#SVGID_53_"  style="overflow:visible;"/>
					</clipPath>
					<g class="st35">
						<g>
							<defs>
								<rect id="SVGID_55_" x="82.4" y="273.6" width="103.9" height="48.3"/>
							</defs>
							<clipPath id="SVGID_56_">
								<use xlink:href="#SVGID_55_"  style="overflow:visible;"/>
							</clipPath>
							<path class="st36" d="M82.4,287.3c0,0,6.5-21,18.5-11s65,24.5,77.5,23s7.5,16.5,3.5,17.5s-35.5,9.5-58.5,2
								S82.9,300.3,82.4,287.3"/>
						</g>
					</g>
				</g>
			</g>
		</g>
	</g>
</g>
</svg>
