<?xml version="1.0" encoding="utf-8"?>
<!-- Generator: Adobe Illustrator 20.0.0, SVG Export Plug-In . SVG Version: 6.00 Build 0)  -->
<svg version="1.1" id="圖層_1" xmlns="http://www.w3.org/2000/svg" xmlns:xlink="http://www.w3.org/1999/xlink" x="0px" y="0px"
	 viewBox="0 0 100 100" style="enable-background:new 0 0 100 100;" xml:space="preserve">
<style type="text/css">
	.st0{fill:#808285;}
	.st1{fill:#A7A9AC;}
	.st2{clip-path:url(#SVGID_2_);fill:#FF4F19;}
	.st3{clip-path:url(#SVGID_4_);fill:#FC0023;}
	.st4{clip-path:url(#SVGID_6_);fill:#A7A9AC;}
	.st5{clip-path:url(#SVGID_8_);fill:#808285;}
	.st6{clip-path:url(#SVGID_10_);fill:#FFFFFF;}
	.st7{clip-path:url(#SVGID_12_);fill:#FFDB2D;}
	.st8{clip-path:url(#SVGID_14_);fill:#FF9900;}
</style>
<g>
	<rect x="57.6" y="6.6" transform="matrix(0.6585 -0.7526 0.7526 0.6585 4.1409 54.5008)" class="st0" width="9.1" height="32.2"/>
	
		<rect x="21.8" y="18.2" transform="matrix(0.7526 -0.6585 0.6585 0.7526 -5.5875 30.5869)" class="st1" width="32.2" height="9.1"/>
	<g>
		<g>
			<defs>
				<rect id="SVGID_1_" x="1.5" width="97" height="100"/>
			</defs>
			<clipPath id="SVGID_2_">
				<use xlink:href="#SVGID_1_"  style="overflow:visible;"/>
			</clipPath>
			<path class="st2" d="M50,0c5,0,9.1,4.1,9.1,9.1S55,18.2,50,18.2s-9.1-4.1-9.1-9.1S45,0,50,0"/>
		</g>
		<g>
			<defs>
				<rect id="SVGID_3_" x="1.5" width="97" height="100"/>
			</defs>
			<clipPath id="SVGID_4_">
				<use xlink:href="#SVGID_3_"  style="overflow:visible;"/>
			</clipPath>
			<path class="st3" d="M50,0c5,0,9.1,4.1,9.1,9.1S55,18.2,50,18.2"/>
		</g>
		<g>
			<defs>
				<rect id="SVGID_5_" x="1.5" width="97" height="100"/>
			</defs>
			<clipPath id="SVGID_6_">
				<use xlink:href="#SVGID_5_"  style="overflow:visible;"/>
			</clipPath>
			<path class="st4" d="M66.7,90.9v-4.5c0-9.2-7.5-16.7-16.7-16.7s-16.7,7.5-16.7,16.7v4.5H16.7v9.1h66.7v-9.1
				C83.4,90.9,66.7,90.9,66.7,90.9z"/>
		</g>
		<g>
			<defs>
				<rect id="SVGID_7_" x="1.5" width="97" height="100"/>
			</defs>
			<clipPath id="SVGID_8_">
				<use xlink:href="#SVGID_7_"  style="overflow:visible;"/>
			</clipPath>
			<path class="st5" d="M66.7,90.9v-4.5c0-9.2-7.5-16.7-16.7-16.7v21.2V97v3h33.3v-9.1H66.7z"/>
		</g>
		<g>
			<defs>
				<rect id="SVGID_9_" x="1.5" width="97" height="100"/>
			</defs>
			<clipPath id="SVGID_10_">
				<use xlink:href="#SVGID_9_"  style="overflow:visible;"/>
			</clipPath>
			<path class="st6" d="M50,81.8c2.5,0,4.5,2,4.5,4.5s-2,4.5-4.5,4.5s-4.5-2-4.5-4.5C45.5,83.9,47.5,81.8,50,81.8"/>
		</g>
		<g>
			<defs>
				<rect id="SVGID_11_" x="1.5" width="97" height="100"/>
			</defs>
			<clipPath id="SVGID_12_">
				<use xlink:href="#SVGID_11_"  style="overflow:visible;"/>
			</clipPath>
			<path class="st7" d="M1.5,27.3c0,26.8,21.7,48.5,48.5,48.5s48.5-21.7,48.5-48.5L1.5,27.3L1.5,27.3z"/>
		</g>
		<g>
			<defs>
				<rect id="SVGID_13_" x="1.5" width="97" height="100"/>
			</defs>
			<clipPath id="SVGID_14_">
				<use xlink:href="#SVGID_13_"  style="overflow:visible;"/>
			</clipPath>
			<path class="st8" d="M50,27.3v48.5c26.8,0,48.5-21.7,48.5-48.5C98.5,27.3,50,27.3,50,27.3z"/>
		</g>
	</g>
</g>
</svg>
