<?xml version="1.0" encoding="utf-8"?>
<!-- Generator: Adobe Illustrator 20.0.0, SVG Export Plug-In . SVG Version: 6.00 Build 0)  -->
<svg version="1.1" id="圖層_1" xmlns="http://www.w3.org/2000/svg" xmlns:xlink="http://www.w3.org/1999/xlink" x="0px" y="0px"
	 viewBox="0 0 100 100" style="enable-background:new 0 0 100 100;" xml:space="preserve">
<style type="text/css">
	.st0{clip-path:url(#SVGID_2_);fill:#F3712D;}
	.st1{clip-path:url(#SVGID_4_);fill:#FFC82C;}
	.st2{clip-path:url(#SVGID_6_);fill:#FFD74B;}
	.st3{clip-path:url(#SVGID_8_);fill:#DDDDDD;}
	.st4{clip-path:url(#SVGID_10_);fill:#CCCCCC;}
</style>
<g>
	<g>
		<defs>
			<rect id="SVGID_1_" y="13.3" width="100" height="73.4"/>
		</defs>
		<clipPath id="SVGID_2_">
			<use xlink:href="#SVGID_1_"  style="overflow:visible;"/>
		</clipPath>
		<path class="st0" d="M90.8,51.1c0.5-1.9,0.8-3.8,0.9-5.8l4.1-2.1l4.3-2.2l-4.7-1L91,38.9c-0.5-1.9-1.2-3.7-2.2-5.4l2.5-3.8l2.6-4
			L89.3,27l-4.4,1.3c-1.4-1.4-3-2.6-4.7-3.6l0.2-4.5l0.2-4.7L77.3,19l-3.2,3.2c-1.9-0.5-3.9-0.8-5.9-0.8l-2.1-4l-2.2-4.2l-1.2,4.5
			L61.6,22c-2,0.5-3.8,1.2-5.6,2.2L52.2,22l-4-2.5l1.3,4.5l1.2,4.3c-1.4,1.4-2.7,2.9-3.7,4.6l-4.6-0.2l-4.8-0.2l3.4,3.2l3.3,3.1
			c-0.5,1.9-0.8,3.8-0.9,5.8l-4.1,2.1L35,48.9l4.6,1.1l4.4,1.1c0.5,1.9,1.2,3.7,2.2,5.4L44,60.2l-2.6,4l4.6-1.3l4.4-1.3
			c1.4,1.4,3,2.6,4.7,3.6l-0.2,4.5l-0.2,4.7L58,71l3.2-3.2c1.9,0.5,3.9,0.8,5.9,0.8l2.1,4l2.2,4.1l1.2-4.6l1.1-4.3
			c2-0.5,3.8-1.2,5.6-2.2L83,68l4,2.5L85.7,66l-1.2-4.3c1.4-1.4,2.7-2.9,3.7-4.6l4.6,0.2l4.8,0.2l-3.4-3.2L90.8,51.1z"/>
	</g>
	<g>
		<defs>
			<rect id="SVGID_3_" y="13.3" width="100" height="73.4"/>
		</defs>
		<clipPath id="SVGID_4_">
			<use xlink:href="#SVGID_3_"  style="overflow:visible;"/>
		</clipPath>
		<path class="st1" d="M88.2,45c0,11.5-9.2,20.9-20.6,20.9C56.2,65.8,47,56.5,47,45s9.2-20.9,20.6-20.9S88.2,33.4,88.2,45"/>
	</g>
	<g>
		<defs>
			<rect id="SVGID_5_" y="13.3" width="100" height="73.4"/>
		</defs>
		<clipPath id="SVGID_6_">
			<use xlink:href="#SVGID_5_"  style="overflow:visible;"/>
		</clipPath>
		<path class="st2" d="M64.9,29.1c-8.1,2-14.1,7.7-16.6,14.6C49.2,35.3,55,28,63.4,25.9c7-1.8,14.1,0.5,19,5.5
			C77.5,28.6,71.2,27.6,64.9,29.1"/>
	</g>
	<g>
		<defs>
			<rect id="SVGID_7_" y="13.3" width="100" height="73.4"/>
		</defs>
		<clipPath id="SVGID_8_">
			<use xlink:href="#SVGID_7_"  style="overflow:visible;"/>
		</clipPath>
		<path class="st3" d="M69.3,52.6c-0.5,0-1.1,0-1.6,0.1c-2.4-7.3-9.3-12.4-17.3-12.4c-0.7,0-2,0.1-3.2,0.2
			c-4.5-3.7-9.4-5.5-14.9-5.5c-12,0-21.7,8.6-23.8,20.6C3.4,58.8,0,64.3,0,69.7c0,9.4,7.8,17.1,17.4,17.1h51.9
			c9.9,0,18.2-7.8,18.2-17.1S79.2,52.6,69.3,52.6"/>
	</g>
	<g>
		<defs>
			<rect id="SVGID_9_" y="13.3" width="100" height="73.4"/>
		</defs>
		<clipPath id="SVGID_10_">
			<use xlink:href="#SVGID_9_"  style="overflow:visible;"/>
		</clipPath>
		<path class="st4" d="M81.7,77.8c-1,2.1-2.3,4-3.8,5.6c3.1-1.6,5.7-4.1,7.3-7.3c3.5-7.4,0.1-16-7.7-19.8
			C83.7,60.6,85.7,69.5,81.7,77.8"/>
	</g>
</g>
</svg>
