<?xml version="1.0" encoding="utf-8"?>
<!-- Generator: Adobe Illustrator 20.0.0, SVG Export Plug-In . SVG Version: 6.00 Build 0)  -->
<svg version="1.1" id="圖層_1" xmlns="http://www.w3.org/2000/svg" xmlns:xlink="http://www.w3.org/1999/xlink" x="0px" y="0px"
	 viewBox="0 0 100 100" style="enable-background:new 0 0 100 100;" xml:space="preserve">
<style type="text/css">
	.st0{clip-path:url(#SVGID_2_);fill:#FF4F19;}
	.st1{clip-path:url(#SVGID_4_);fill:#FC0023;}
	.st2{clip-path:url(#SVGID_6_);fill:#D6D5D8;}
	.st3{clip-path:url(#SVGID_8_);fill:#A9A8AE;}
	.st4{clip-path:url(#SVGID_10_);fill:#FFDB2D;}
	.st5{clip-path:url(#SVGID_12_);fill:#FF9900;}
	.st6{clip-path:url(#SVGID_14_);fill:#FFDB2D;}
	.st7{clip-path:url(#SVGID_16_);fill:#FF9900;}
</style>
<g>
	<g>
		<defs>
			<rect id="SVGID_1_" y="10.9" width="100" height="78.3"/>
		</defs>
		<clipPath id="SVGID_2_">
			<use xlink:href="#SVGID_1_"  style="overflow:visible;"/>
		</clipPath>
		<path class="st0" d="M52.6,87.1L33,81.2c-4.2-1.2-7-5-7-9.4v-8.2c0-2.2,2.2-3.8,4.2-3.1l32.6,9.8c1.4,0.4,2.3,1.7,2.3,3.1v4.3
			c0,3.1-1.4,6-3.9,7.8C58.7,87.5,55.5,88,52.6,87.1 M32.6,68.1v3.8c0,1.4,0.9,2.7,2.3,3.1l19.6,5.9c2.2,0.6,4.2-1,4.2-3.1v-1.9
			L32.6,68.1z"/>
	</g>
	<g>
		<defs>
			<rect id="SVGID_3_" y="10.9" width="100" height="78.3"/>
		</defs>
		<clipPath id="SVGID_4_">
			<use xlink:href="#SVGID_3_"  style="overflow:visible;"/>
		</clipPath>
		<path class="st1" d="M62.9,70.4l-17.2-5.2V72l13,3.9v1.9c0,2.1-2,3.8-4.2,3.1l-8.8-2.7V85l7,2.1c2.9,0.9,6.1,0.4,8.6-1.5
			c2.5-1.9,3.9-4.7,3.9-7.8v-4.3C65.2,72,64.3,70.8,62.9,70.4"/>
	</g>
	<g>
		<defs>
			<rect id="SVGID_5_" y="10.9" width="100" height="78.3"/>
		</defs>
		<clipPath id="SVGID_6_">
			<use xlink:href="#SVGID_5_"  style="overflow:visible;"/>
		</clipPath>
		<polygon class="st2" points="91.3,14.3 13,37.8 13,62.2 91.3,85.7 		"/>
	</g>
	<g>
		<defs>
			<rect id="SVGID_7_" y="10.9" width="100" height="78.3"/>
		</defs>
		<clipPath id="SVGID_8_">
			<use xlink:href="#SVGID_7_"  style="overflow:visible;"/>
		</clipPath>
		<polygon class="st3" points="91.3,50 13,50 13,62.2 91.3,85.7 		"/>
	</g>
	<g>
		<defs>
			<rect id="SVGID_9_" y="10.9" width="100" height="78.3"/>
		</defs>
		<clipPath id="SVGID_10_">
			<use xlink:href="#SVGID_9_"  style="overflow:visible;"/>
		</clipPath>
		<path class="st4" d="M93.5,89.1c-3.6,0-6.5-2.9-6.5-6.5V17.4c0-3.6,2.9-6.5,6.5-6.5s6.5,2.9,6.5,6.5v65.2
			C100,86.2,97.1,89.1,93.5,89.1"/>
	</g>
	<g>
		<defs>
			<rect id="SVGID_11_" y="10.9" width="100" height="78.3"/>
		</defs>
		<clipPath id="SVGID_12_">
			<use xlink:href="#SVGID_11_"  style="overflow:visible;"/>
		</clipPath>
		<path class="st5" d="M87,50v32.6c0,3.6,2.9,6.5,6.5,6.5s6.5-2.9,6.5-6.5V50H87z"/>
	</g>
	<g>
		<defs>
			<rect id="SVGID_13_" y="10.9" width="100" height="78.3"/>
		</defs>
		<clipPath id="SVGID_14_">
			<use xlink:href="#SVGID_13_"  style="overflow:visible;"/>
		</clipPath>
		<path class="st6" d="M6.5,69.6c-3.6,0-6.5-3-6.5-6.6V37c0-3.6,2.9-6.5,6.5-6.5S13,33.4,13,37v26C13,66.6,10.1,69.6,6.5,69.6"/>
	</g>
	<g>
		<defs>
			<rect id="SVGID_15_" y="10.9" width="100" height="78.3"/>
		</defs>
		<clipPath id="SVGID_16_">
			<use xlink:href="#SVGID_15_"  style="overflow:visible;"/>
		</clipPath>
		<path class="st7" d="M0,50v13c0,3.6,2.9,6.5,6.5,6.5S13,66.6,13,63V50H0z"/>
	</g>
</g>
</svg>
