<?xml version="1.0" encoding="utf-8"?>
<!-- Generator: Adobe Illustrator 20.0.0, SVG Export Plug-In . SVG Version: 6.00 Build 0)  -->
<svg version="1.1" id="圖層_1" xmlns="http://www.w3.org/2000/svg" xmlns:xlink="http://www.w3.org/1999/xlink" x="0px" y="0px"
	 viewBox="0 0 446.3 446.3" style="enable-background:new 0 0 446.3 446.3;" xml:space="preserve">
<style type="text/css">
	.st0{clip-path:url(#SVGID_2_);}
	.st1{clip-path:url(#SVGID_4_);fill:#A7A9AC;}
	.st2{clip-path:url(#SVGID_4_);fill:#FFDB2D;}
	.st3{clip-path:url(#SVGID_4_);fill:#FF9900;}
	.st4{clip-path:url(#SVGID_4_);fill:#FC0023;}
	.st5{clip-path:url(#SVGID_4_);fill:#FF4F19;}
	.st6{clip-path:url(#SVGID_6_);fill:#A7A9AC;}
	.st7{opacity:0.8;clip-path:url(#SVGID_8_);}
	.st8{clip-path:url(#SVGID_10_);}
	.st9{clip-path:url(#SVGID_12_);fill:#FF4F19;}
	.st10{clip-path:url(#SVGID_12_);fill:none;stroke:#F5A200;stroke-width:23.756;stroke-miterlimit:10;}
	.st11{clip-path:url(#SVGID_12_);fill:none;stroke:#FED608;stroke-width:22.876;stroke-miterlimit:10;}
	.st12{clip-path:url(#SVGID_14_);fill:#FF9900;}
	.st13{clip-path:url(#SVGID_14_);fill:#FF4F19;}
	.st14{clip-path:url(#SVGID_14_);fill:#FC0023;}
</style>
<g>
	<defs>
		<rect id="SVGID_1_" x="0.5" y="-17.7" width="445.3" height="591.7"/>
	</defs>
	<clipPath id="SVGID_2_">
		<use xlink:href="#SVGID_1_"  style="overflow:visible;"/>
	</clipPath>
	<g class="st0">
		<defs>
			<rect id="SVGID_3_" x="0.5" y="-17.7" width="445.3" height="591.7"/>
		</defs>
		<clipPath id="SVGID_4_">
			<use xlink:href="#SVGID_3_"  style="overflow:visible;"/>
		</clipPath>
		<path class="st1" d="M1,284.1c12.7,32.5,29.1,55.7,49.7,85.7c16.6,24.1,54.5,31.2,82,42.7c28,11.7,58.4,23.6,90.7,23.6
			c39.8,0,70.4-17,103.3-34.3c26.9-14.1,57.3-16.7,77.4-48.7c14.3-22.8,31.8-43.7,41.7-69H1z"/>
		
			<rect x="111.3" y="123.6" transform="matrix(0.9959 -8.994139e-02 8.994139e-02 0.9959 -16.5932 20.4987)" class="st2" width="215.8" height="141.6"/>
		<path class="st3" d="M261.5,253.4l-8.9-98.7c-0.4-4.7-2.8-8.5-7.5-8.1l-49.7,4.5c-4.7,0.4-10.4,5-10,9.7l8.9,98.7L261.5,253.4z"/>
		<path class="st4" d="M240.5,193c4.8-0.4,9.1,3.1,9.5,7.9c0.4,4.8-3.1,9.1-7.9,9.5s-9.1-3.1-9.5-7.9
			C232.1,197.7,235.6,193.4,240.5,193"/>
		<path class="st5" d="M327.8,93.3L209.4,16.6c-4.3-2.8-10-2.3-13.8,1.2L92.8,114.5c-7.8,7.3-1.9,20.3,8.7,19.4l221.3-20
			C333.4,113,336.8,99.1,327.8,93.3"/>
	</g>
	<g class="st0">
		<defs>
			<path id="SVGID_5_" d="M1,284.1c12.7,32.5,29.1,55.7,49.7,85.7c16.6,24.1,54.5,31.2,82,42.7c28,11.7,58.4,23.6,90.7,23.6
				c39.8,0,70.4-17,103.3-34.3c26.9-14.1,57.3-16.7,77.4-48.7c14.3-22.8,31.8-43.7,41.7-69H1z"/>
		</defs>
		<clipPath id="SVGID_6_">
			<use xlink:href="#SVGID_5_"  style="overflow:visible;"/>
		</clipPath>
		<path class="st6" d="M16.4,328.9c0,0,55,11,61,19s31,11,41,20s75,7,85,11s37-2,53-4s75-19,83-21s85-25,85-25l-39,69l-171,54
			l-119-38l-70-29L16.4,328.9z"/>
	</g>
	<g class="st0">
		<defs>
			<rect id="SVGID_7_" x="0.5" y="-17.7" width="445.3" height="591.7"/>
		</defs>
		<clipPath id="SVGID_8_">
			<use xlink:href="#SVGID_7_"  style="overflow:visible;"/>
		</clipPath>
		<g class="st7">
			<g>
				<defs>
					<rect id="SVGID_9_" x="0.5" y="277.5" width="444.8" height="296.6"/>
				</defs>
				<clipPath id="SVGID_10_">
					<use xlink:href="#SVGID_9_"  style="overflow:visible;"/>
				</clipPath>
				<g class="st8">
					<defs>
						<path id="SVGID_11_" d="M0.5,284.5c12.7,32.5,29.1,55.7,49.7,85.7c16.6,24.1,54.5,31.2,82,42.7c28,11.7,58.4,23.6,90.7,23.6
							c39.8,0,70.4-17,103.3-34.3c26.9-14.1,57.3-16.7,77.4-48.7c14.3-22.8,31.8-43.7,41.7-69H0.5z"/>
					</defs>
					<clipPath id="SVGID_12_">
						<use xlink:href="#SVGID_11_"  style="overflow:visible;"/>
					</clipPath>
					<path class="st9" d="M288.4,425.8c0,38-30.8,68.9-68.9,68.9s-68.9-30.8-68.9-68.9c0-38,30.8-68.9,68.9-68.9
						S288.4,387.7,288.4,425.8"/>
					<circle class="st10" cx="219.5" cy="425.8" r="95.9"/>
					<circle class="st11" cx="219.5" cy="425.8" r="136.8"/>
				</g>
			</g>
		</g>
	</g>
	<g class="st0">
		<defs>
			<polygon id="SVGID_13_" points="332.6,-17.7 201.6,-3.7 230.6,279.3 380.6,267.3 			"/>
		</defs>
		<clipPath id="SVGID_14_">
			<use xlink:href="#SVGID_13_"  style="overflow:visible;"/>
		</clipPath>
		
			<rect x="111.6" y="123.6" transform="matrix(0.9959 -8.994181e-02 8.994181e-02 0.9959 -16.5918 20.5288)" class="st12" width="215.8" height="141.6"/>
		<path class="st13" d="M261.8,253.4l-8.9-98.7c-0.4-4.7-2.8-8.5-7.5-8.1l-49.7,4.5c-4.7,0.4-10.4,5-10,9.7l8.9,98.7L261.8,253.4z"
			/>
		<path class="st12" d="M240.8,193c4.8-0.4,9.1,3.1,9.5,7.9c0.4,4.8-3.1,9.1-7.9,9.5s-9.1-3.1-9.5-7.9
			C232.4,197.7,236,193.4,240.8,193"/>
		<path class="st14" d="M328.2,93.3L209.7,16.6c-4.3-2.8-10-2.3-13.8,1.2L93.1,114.5c-7.8,7.3-1.9,20.3,8.7,19.4l221.3-20
			C333.7,113,337.1,99.1,328.2,93.3"/>
	</g>
</g>
</svg>
